<?xml version="1.0" encoding="UTF-8" standalone="no"?>
<!-- Created with Inkscape (http://www.inkscape.org/) -->

<svg
   version="1.1"
   id="svg2"
   width="863.63062"
   height="160.07198"
   viewBox="0 0 863.63062 160.07198"
   sodipodi:docname="logo.svg"
   inkscape:version="1.2.2 (732a01da63, 2022-12-09, custom)"
   xmlns:inkscape="http://www.inkscape.org/namespaces/inkscape"
   xmlns:sodipodi="http://sodipodi.sourceforge.net/DTD/sodipodi-0.dtd"
   xmlns="http://www.w3.org/2000/svg"
   xmlns:svg="http://www.w3.org/2000/svg">
  <defs
     id="defs6" />
  <sodipodi:namedview
     id="namedview4"
     pagecolor="#ffffff"
     bordercolor="#000000"
     borderopacity="0.25"
     inkscape:showpageshadow="2"
     inkscape:pageopacity="0.0"
     inkscape:pagecheckerboard="0"
     inkscape:deskcolor="#d1d1d1"
     showgrid="false"
     inkscape:zoom="1.556228"
     inkscape:cx="431.81332"
     inkscape:cy="113.41526"
     inkscape:window-width="1860"
     inkscape:window-height="1016"
     inkscape:window-x="60"
     inkscape:window-y="27"
     inkscape:window-maximized="1"
     inkscape:current-layer="g8" />
  <g
     id="g8"
     inkscape:groupmode="layer"
     inkscape:label="ink_ext_XXXXXX"
     transform="matrix(1.3333333,0,0,-1.3333333,0,227.31466)">
    <g
       id="g10"
       transform="scale(0.1)">
      <path
         d="m 430.594,1341.39 v 0 c -4.672,0.83 -11.606,2.02 -17.473,2.96 -25.539,4.08 -61.777,8.73 -89.453,7.72 -6.578,-0.25 -13.008,-0.64 -19.32,-1.16 l -5.996,-0.62 c -4.403,-0.43 -8.434,-0.83 -12.372,-1.35 -1.421,-0.18 -2.789,-0.39 -4.152,-0.61 l -2.805,-0.43 c -3.57,-0.53 -7.113,-1.07 -10.582,-1.69 -1.765,-0.32 -3.492,-0.68 -5.207,-1.03 l -1.863,-0.38 c -3.223,-0.66 -6.449,-1.33 -9.609,-2.08 -2.278,-0.53 -4.492,-1.11 -6.719,-1.69 -3.262,-0.85 -6.262,-1.65 -9.211,-2.51 -2.242,-0.67 -4.477,-1.36 -6.707,-2.07 -2.84,-0.91 -5.668,-1.85 -8.426,-2.84 -2.211,-0.77 -4.351,-1.55 -6.48,-2.36 -2.707,-1.04 -5.367,-2.12 -8.004,-3.22 -2.406,-1.01 -4.293,-1.8 -6.137,-2.62 -2.586,-1.17 -5.152,-2.39 -7.707,-3.63 l -1.437,-0.7 c -1.45,-0.7 -2.903,-1.41 -4.329,-2.14 -2.417,-1.25 -4.792,-2.57 -7.175,-3.9 l -2.098,-1.17 c -1.207,-0.67 -2.394,-1.32 -3.543,-2 -2.516,-1.48 -4.988,-3.06 -7.484,-4.64 l -1.899,-1.19 c -1.148,-0.72 -2.008,-1.25 -2.836,-1.81 -2.851,-1.89 -5.613,-3.88 -8.355,-5.87 l -2.785,-1.97 c -4.094,-2.89 -8.039,-5.98 -11.825,-9.27 l -2.792,-2.42 c -2.633,-2.24 -5.219,-4.46 -7.747,-6.76 l -3.972,-3.8 c -2.399,-2.27 -4.356,-4.14 -6.258,-6.05 l -4.273,-4.43 c -1.856,-1.95 -3.727,-3.91 -5.559,-5.92 -1.164,-1.27 -2.281,-2.54 -3.387,-3.81 l -0.863,-0.98 c -1.754,-2.01 -3.508,-4.01 -5.211,-6.06 -1.4063,-1.67 -2.7891,-3.37 -4.1563,-5.06 -1.6797,-2.08 -3.3554,-4.16 -4.9883,-6.28 l -4.0156,-5.27 c -1.6133,-2.15 -3.2031,-4.32 -4.7851,-6.51 l -3.9336,-5.52 c -1.5,-2.16 -3.0391,-4.43 -4.5703,-6.7 -1.2618,-1.86 -2.5,-3.72 -3.7227,-5.59 -1.4805,-2.25 -2.8945,-4.47 -4.3086,-6.71 l -3.793,-6.06 c -1.3203,-2.12 -2.6093,-4.27 -3.8789,-6.42 l -3.9375,-6.63 c -1.2812,-2.16 -2.5,-4.32 -3.7226,-6.48 l -3.9375,-6.96 c -1.9219,-3.49 -3.8516,-7.08 -5.793,-10.68 l -2.5859,-4.88 c -2.0664,-3.92 -4.1485,-7.9 -6.1875,-11.92 L 0,1076.08 c 3.625,-0.23 7.28516,-0.4 10.9453,-0.56 l 5.9024,-0.29 c 4.5625,-0.16 9.1953,-0.2 13.8281,-0.25 l 5.3281,-0.07 c 6.3516,0.01 12.7852,0.36 19.25,0.36 259.7191,0.08 333.8511,216.66 375.3401,266.12"
         style="fill:#9c333f;fill-opacity:1;fill-rule:nonzero;stroke:none"
         id="path12" />
      <path
         d="m 2537.93,1363.77 c -39.33,-22.86 -70.06,-54.5 -92.15,-94.96 -22.11,-40.45 -33.15,-86.52 -33.15,-138.22 0,-23.23 2.25,-45.71 6.74,-67.43 l 474.23,193.29 c -16.5,44.19 -44.58,78.84 -84.29,103.95 -39.71,25.09 -85.79,37.65 -138.22,37.65 -49.44,0 -93.83,-11.43 -133.16,-34.28 z m 346.67,-395 19.11,-12.364 c -60.69,-77.926 -137.49,-116.871 -230.37,-116.871 -53.94,0 -102.46,12.539 -145.53,37.649 -43.09,25.089 -76.8,59.734 -101.13,103.945 -24.36,44.201 -36.53,94.011 -36.53,149.461 0,55.43 12.17,105.07 36.53,148.9 24.33,43.83 57.87,78.27 100.57,103.39 42.71,25.08 91.03,37.64 144.96,37.64 59.93,0 112.56,-15.93 157.89,-47.76 45.33,-31.85 76.22,-74.73 92.72,-128.67 l -497.83,-202.28 c 16.47,-54.693 47.01,-98.326 91.59,-130.915 44.56,-32.59 97.2,-48.883 157.89,-48.883 86.14,0 156.2,35.57 210.13,106.758"
         style="fill:#ffffff;fill-opacity:1;fill-rule:nonzero;stroke:none"
         id="path14" />
      <path
         d="m 3530.19,1359.84 c 40.07,-40.46 60.13,-96.65 60.13,-168.57 V 839.535 h -22.48 v 351.735 c 0,65.18 -18.18,115.93 -54.5,152.28 -36.35,36.32 -86.72,54.5 -151.15,54.5 -71.92,-1.52 -129.24,-23.6 -171.94,-66.31 -42.7,-42.7 -67.05,-101.52 -73.04,-176.43 V 839.535 h -22.48 v 580.985 h 22.48 v -164.07 c 18.71,51.69 49.06,91.76 91.03,120.25 41.94,28.46 93.27,43.07 153.95,43.82 71.92,0 127.91,-20.23 168,-60.68"
         style="fill:#ffffff;fill-opacity:1;fill-rule:nonzero;stroke:none"
         id="path16" />
      <path
         d="m 3746.51,1420.52 h 26.97 l 194.42,-261.84 194.4,261.84 h 26.97 l -207.9,-279.82 223.64,-301.165 h -28.1 L 3966.76,1121.6 3757.75,839.535 h -28.1 l 223.64,301.165 -206.78,279.82"
         style="fill:#ffffff;fill-opacity:1;fill-rule:nonzero;stroke:none"
         id="path18" />
      <path
         d="m 4428.08,1363.77 c -39.32,-22.86 -70.06,-54.5 -92.15,-94.96 -22.11,-40.45 -33.14,-86.52 -33.14,-138.22 0,-23.23 2.24,-45.71 6.74,-67.43 l 474.23,193.29 c -16.5,44.19 -44.58,78.84 -84.29,103.95 -39.72,25.09 -85.79,37.65 -138.22,37.65 -49.45,0 -93.83,-11.43 -133.17,-34.28 z m 346.68,-395 19.1,-12.364 c -60.68,-77.926 -137.48,-116.871 -230.37,-116.871 -53.93,0 -102.45,12.539 -145.53,37.649 -43.08,25.089 -76.79,59.734 -101.13,103.945 -24.36,44.201 -36.52,94.011 -36.52,149.461 0,55.43 12.16,105.07 36.52,148.9 24.34,43.83 57.87,78.27 100.58,103.39 42.7,25.08 91.02,37.64 144.96,37.64 59.93,0 112.56,-15.93 157.89,-47.76 45.32,-31.85 76.22,-74.73 92.71,-128.67 l -497.83,-202.28 c 16.48,-54.693 47.01,-98.326 91.59,-130.915 44.56,-32.59 97.21,-48.883 157.89,-48.883 86.15,0 156.21,35.57 210.14,106.758"
         style="fill:#ffffff;fill-opacity:1;fill-rule:nonzero;stroke:none"
         id="path20" />
      <path
         d="m 5420.35,1359.84 c 40.07,-40.46 60.12,-96.65 60.12,-168.57 V 839.535 h -22.48 v 351.735 c 0,65.18 -18.17,115.93 -54.5,152.28 -36.35,36.32 -86.72,54.5 -151.14,54.5 -71.92,-1.52 -129.24,-23.6 -171.95,-66.31 -42.69,-42.7 -67.05,-101.52 -73.03,-176.43 V 839.535 h -22.48 v 580.985 h 22.48 v -164.07 c 18.71,51.69 49.05,91.76 91.02,120.25 41.95,28.46 93.28,43.07 153.96,43.82 71.91,0 127.91,-20.23 168,-60.68"
         style="fill:#ffffff;fill-opacity:1;fill-rule:nonzero;stroke:none"
         id="path22" />
      <path
         d="m 5708.59,1420.52 h 22.47 V 839.535 h -22.47 z m 31.46,188.23 c 5.99,-5.62 8.99,-12.55 8.99,-20.79 0,-7.5 -3,-14.24 -8.99,-20.23 -6,-6 -12.75,-8.98 -20.22,-8.98 -8.26,0 -15.18,2.98 -20.79,8.98 -5.63,5.99 -8.43,12.73 -8.43,20.23 0,8.24 2.8,15.17 8.43,20.79 5.61,5.62 12.53,8.43 20.79,8.43 7.47,0 14.22,-2.81 20.22,-8.43"
         style="fill:#ffffff;fill-opacity:1;fill-rule:nonzero;stroke:none"
         id="path24" />
      <path
         d="m 6061.44,1363.77 c -39.72,-22.86 -70.63,-54.5 -92.72,-94.96 -22.1,-40.45 -33.14,-86.52 -33.14,-138.22 0,-51.7 11.04,-97.96 33.14,-138.785 22.09,-40.844 53,-72.672 92.72,-95.52 39.7,-22.863 84.28,-34.273 133.72,-34.273 49.45,0 94.02,11.41 133.73,34.273 39.7,22.848 70.61,54.676 92.72,95.52 22.09,40.825 33.14,87.085 33.14,138.785 0,51.7 -11.05,97.77 -33.14,138.22 -22.11,40.46 -53.02,72.1 -92.72,94.96 -39.71,22.85 -84.28,34.28 -133.73,34.28 -49.44,0 -94.02,-11.43 -133.72,-34.28 z m 278.12,19.67 c 43.08,-24.73 76.79,-59.2 101.15,-103.39 24.33,-44.21 36.52,-94.03 36.52,-149.46 0,-55.45 -12.19,-105.26 -36.52,-149.461 -24.36,-44.211 -58.07,-78.856 -101.15,-103.945 -43.08,-25.11 -91.21,-37.649 -144.4,-37.649 -53.2,0 -101.33,12.539 -144.4,37.649 -43.09,25.089 -76.8,59.734 -101.14,103.945 -24.35,44.201 -36.52,94.011 -36.52,149.461 0,55.43 12.17,105.25 36.52,149.46 24.34,44.19 58.05,78.66 101.14,103.39 43.07,24.72 91.2,37.08 144.4,37.08 53.19,0 101.32,-12.36 144.4,-37.08"
         style="fill:#ffffff;fill-opacity:1;fill-rule:nonzero;stroke:none"
         id="path26" />
      <path
         d="m 1295.89,927.242 2.43,-1.062 c 4.28,-1.883 8.27,-3.602 12.27,-5.282 l 2.66,-1.125 c 4.36,-1.812 8.74,-3.562 13.14,-5.289 l 3.32,-1.316 c 4.16,-1.613 8.36,-3.172 12.58,-4.715 l 4.01,-1.484 c 4.01,-1.442 8.1,-2.832 12.19,-4.207 l 4.47,-1.524 c 3.92,-1.297 7.91,-2.535 11.87,-3.758 l 4.96,-1.535 c 3.81,-1.144 7.7,-2.238 11.61,-3.324 l 5.32,-1.48 c 3.76,-1.008 7.58,-1.969 11.39,-2.911 l 5.72,-1.421 c 3.67,-0.864 7.42,-1.692 11.17,-2.5 l 6.08,-1.309 c 3.67,-0.758 7.35,-1.449 11.05,-2.137 l 10.62,-1.851 38.2,73.093 c 2.31,4.172 4.62,8.208 6.92,12.215 l 2.85,4.914 c 2.14,3.676 4.28,7.317 6.44,10.899 l 4.32,7.035 c 1.39,2.258 2.78,4.508 4.19,6.734 l 4.35,6.738 c 1.45,2.24 2.9,4.47 4.37,6.68 l 4.51,6.62 c 1.64,2.37 3.07,4.47 4.54,6.54 1.37,1.94 2.79,3.88 4.21,5.82 1.69,2.33 3.41,4.67 5.15,6.99 1.5,1.97 2.95,3.87 4.43,5.75 1.75,2.26 3.56,4.53 5.36,6.76 1.5,1.87 3.02,3.72 4.55,5.56 1.87,2.22 3.75,4.41 5.65,6.59 1.63,1.87 3.14,3.6 4.68,5.3 1.94,2.16 3.94,4.28 5.93,6.39 l 0.92,0.97 c 1.31,1.4 2.63,2.8 3.98,4.16 1.9,1.94 3.86,3.86 5.84,5.78 l 5.3,5.13 c 2.05,1.92 4.11,3.73 6.15,5.55 l 2.54,2.24 c 1.01,0.92 2.04,1.84 3.09,2.73 2.9,2.47 5.87,4.84 8.86,7.19 l 3.41,2.75 c 4.21,3.23 8.46,6.33 12.81,9.33 0.84,0.58 1.72,1.14 2.6,1.71 l 1.25,0.81 c 3.1,2.08 6.28,4.19 9.57,6.21 1.11,0.68 2.27,1.35 3.44,2.03 l 1.97,1.12 c 3.03,1.78 5.79,3.39 8.62,4.93 1.46,0.78 2.92,1.52 4.36,2.26 l 1.72,0.87 c 3.11,1.58 5.83,2.96 8.61,4.27 1.71,0.8 3.42,1.56 5.12,2.31 l 1.46,0.65 c 2.92,1.28 5.82,2.54 8.78,3.74 2.3,0.93 4.64,1.82 6.98,2.69 3,1.13 6.02,2.22 9.08,3.27 2.41,0.82 4.87,1.61 7.33,2.37 3.09,0.97 6.27,1.91 9.48,2.81 2.48,0.69 4.97,1.37 7.51,2.01 3.31,0.84 6.67,1.61 10.06,2.36 2.54,0.56 5.1,1.13 7.7,1.65 3.51,0.69 7.09,1.3 10.67,1.9 l 1.81,0.3 c 2,0.33 3.99,0.66 6.04,0.96 3.79,0.54 7.68,0.99 11.59,1.43 l 2.31,0.27 c 1.75,0.21 3.52,0.42 5.32,0.58 4.37,0.41 8.91,0.7 13.45,0.97 l 2.33,0.16 c 1.38,0.1 2.76,0.2 4.17,0.26 10.48,0.48 21.06,0.73 32.55,0.2 l 11.1,-0.7 c 0.51,-0.05 1.03,-0.09 1.55,-0.14 l 36.9,-4.46 c 2.6,-0.39 5.15,-0.82 7.68,-1.23 l 4.22,-0.69 c 3.72,-0.64 7.34,-1.28 10.85,-1.93 0.04,-0.01 0.08,-0.02 0.12,-0.02 -10.07,11.35 -20.71,23.05 -31.75,34.89 -5.78,6.21 -11.95,12.73 -18.46,19.55 l -10.03,10.43 c -6.86,7.07 -14.06,14.43 -21.62,22.01 -3.78,3.79 -7.63,7.65 -11.57,11.54 -11.83,11.72 -24.41,23.91 -37.68,36.46 -33.88,32.03 -68.79,63.04 -103.77,92.17 -10.86,9.03 -21.99,18.11 -33.37,27.18 -5.7,4.54 -11.44,9.07 -17.26,13.6 -56.71,44.22 -114.12,83.91 -170.64,117.96 -6.78,4.08 -13.63,8.12 -20.49,12.11 -42.95,24.93 -86.06,46.98 -128.11,65.52 -120.43,53.11 -237.42,80.04 -347.721,80.04 -9.871,-0.02 -19.055,-0.2 -28.078,-0.52 -1.793,-0.07 -3.543,-0.18 -5.293,-0.29 l -3.895,-0.21 c -6.386,-0.32 -12.121,-0.61 -17.675,-1.03 -2.149,-0.16 -4.25,-0.36 -6.34,-0.56 l -4.024,-0.39 c -5.926,-0.54 -10.683,-0.98 -15.312,-1.52 -2.469,-0.29 -4.891,-0.63 -7.324,-0.96 l -4.278,-0.58 c -4.336,-0.59 -8.66,-1.17 -12.89,-1.85 -2.832,-0.45 -5.594,-0.95 -8.348,-1.45 l -2.102,-0.38 c -4.343,-0.78 -8.687,-1.57 -12.937,-2.44 -3.313,-0.69 -6.582,-1.42 -9.856,-2.16 -4.394,-1 -8.476,-1.96 -12.476,-2.97 -3.274,-0.84 -6.496,-1.7 -9.719,-2.59 -3.914,-1.08 -7.766,-2.19 -11.562,-3.35 -3.145,-0.95 -6.25,-1.93 -9.305,-2.93 -3.711,-1.22 -7.387,-2.49 -11.008,-3.79 -2.988,-1.07 -5.949,-2.14 -8.859,-3.25 -3.551,-1.37 -7.047,-2.78 -10.535,-4.23 -3.489,-1.44 -5.969,-2.47 -8.379,-3.53 -3.438,-1.51 -6.789,-3.09 -10.118,-4.67 l -1.687,-0.8 c -2.395,-1.13 -4.32,-2.03 -6.211,-2.98 -3.117,-1.56 -6.145,-3.18 -9.16,-4.81 l -2.981,-1.58 c -1.925,-1.02 -3.476,-1.84 -4.972,-2.7 -3.067,-1.72 -6.012,-3.51 -8.961,-5.29 l -3.266,-1.95 c -1.394,-0.83 -2.793,-1.65 -4.14,-2.5 -3.633,-2.28 -7.129,-4.66 -10.625,-7.03 l -4.165,-2.77 c -5.535,-3.68 -10.894,-7.62 -16.062,-11.79 l -3.063,-2.47 c -3.601,-2.84 -7.14,-5.66 -10.585,-8.58 -1.047,-0.88 -2.083,-1.8 -3.106,-2.72 l -3.156,-2.78 c -2.625,-2.3 -4.957,-4.36 -7.235,-6.46 -1.289,-1.18 -2.5,-2.36 -3.722,-3.54 l -2.696,-2.58 c -2.195,-2.11 -4.39,-4.21 -6.511,-6.36 -1.504,-1.5 -2.969,-3.02 -4.422,-4.55 l -1.223,-1.27 c -2.273,-2.37 -4.551,-4.74 -6.769,-7.14 -1.61,-1.76 -3.203,-3.56 -4.801,-5.35 -2.805,-3.16 -4.945,-5.58 -7.043,-8.03 -1.496,-1.75 -2.949,-3.5 -4.395,-5.25 l -0.918,-1.1 c -2.031,-2.46 -4.054,-4.95 -6.062,-7.46 -1.703,-2.15 -3.41,-4.34 -5.109,-6.53 -1.954,-2.53 -3.887,-5.09 -5.809,-7.66 l -4.906,-6.67 c -1.864,-2.59 -3.739,-5.22 -5.586,-7.87 l -4.754,-6.84 c -1.797,-2.63 -3.594,-5.35 -5.391,-8.06 l -4.511,-6.87 c -1.758,-2.74 -3.516,-5.52 -5.274,-8.32 l -4.285,-6.88 c -1.781,-2.89 -3.527,-5.81 -5.266,-8.73 l -4.015,-6.69 c -1.805,-3.1 -3.602,-6.24 -5.387,-9.38 l -3.606,-6.26 c -2.097,-3.74 -4.187,-7.53 -6.281,-11.31 l -2.469,-4.48 c -2.824,-5.19 -5.644,-10.46 -8.449,-15.73 l -23.933,-46.64 c 1.004,-0.18 2.011,-0.35 3.015,-0.52 1.836,-0.32 3.672,-0.64 5.528,-0.93 5.507,-0.86 11.007,-1.72 16.464,-2.7 7.969,-1.41 15.864,-3 23.696,-4.66 l -0.785,-3.66 v 0 l 1.652,3.48 c 4.93,-1.04 9.863,-2.08 14.734,-3.22 7.934,-1.85 15.766,-3.86 23.567,-5.94 l 2.453,-0.65 c 4.09,-1.09 8.191,-2.18 12.246,-3.35 7.906,-2.26 15.73,-4.7 23.523,-7.19 l 3.555,-1.15 c 3.418,-1.08 6.836,-2.17 10.203,-3.32 7.934,-2.69 15.774,-5.55 23.574,-8.46 l 3.442,-1.27 c 3.14,-1.16 6.277,-2.32 9.383,-3.53 7.996,-3.11 15.898,-6.4 23.769,-9.72 l 3.828,-1.61 c 2.657,-1.11 5.313,-2.22 7.938,-3.37 8.117,-3.56 16.133,-7.27 24.125,-11.03 l 3.738,-1.74 c 2.313,-1.07 4.617,-2.14 6.902,-3.25 8.313,-4.02 16.528,-8.19 24.719,-12.4 l 9.317,-4.77 c 8.601,-4.53 17.129,-9.2 25.617,-13.93 l 7.75,-4.28 c 9.094,-5.13 18.097,-10.39 27.062,-15.72 l 5.684,-3.34 c 9.844,-5.9 19.598,-11.91 29.297,-18 l 2.89,-1.78 c 54.766,-34.5 107.071,-71.31 157.656,-106.9 92.58,-65.13 179.99,-126.63 274.32,-170.927 l 1.1,-0.515 c 4.55,-2.129 9.36,-4.313 14.18,-6.453 l -0.61,-3.836 v 0 l 1.51,3.433"
         style="fill:#9c333f;fill-opacity:1;fill-rule:nonzero;stroke:none"
         id="path28" />
      <path
         d="m 1926.92,1123.77 -1.53,0.33 c -4.64,1.01 -9.99,2.12 -15.82,3.26 -25.37,5.02 -61.42,11 -89.11,11 -6.58,0 -13.02,-0.16 -19.35,-0.45 l -6.01,-0.4 c -4.42,-0.27 -8.46,-0.52 -12.42,-0.89 -1.42,-0.13 -2.8,-0.3 -4.16,-0.46 l -2.83,-0.33 c -3.58,-0.4 -7.14,-0.8 -10.63,-1.3 -1.78,-0.26 -3.52,-0.55 -5.25,-0.84 l -1.87,-0.31 c -3.24,-0.55 -6.49,-1.09 -9.68,-1.72 -2.29,-0.45 -4.53,-0.95 -6.78,-1.45 -3.29,-0.73 -6.31,-1.42 -9.29,-2.17 -2.27,-0.59 -4.52,-1.2 -6.78,-1.83 -2.87,-0.8 -5.73,-1.64 -8.53,-2.52 -2.23,-0.69 -4.4,-1.39 -6.56,-2.13 -2.74,-0.93 -5.44,-1.92 -8.11,-2.92 -2.44,-0.91 -4.36,-1.64 -6.23,-2.39 -2.63,-1.07 -5.24,-2.2 -7.84,-3.35 l -1.46,-0.64 c -1.48,-0.65 -2.95,-1.31 -4.41,-1.99 -2.46,-1.15 -4.88,-2.39 -7.31,-3.62 l -2.14,-1.1 c -1.23,-0.62 -2.44,-1.23 -3.61,-1.87 -2.57,-1.39 -5.1,-2.87 -7.65,-4.36 l -1.94,-1.12 c -1.17,-0.68 -2.05,-1.18 -2.9,-1.7 -2.92,-1.79 -5.75,-3.68 -8.57,-5.56 l -2.85,-1.87 c -4.2,-2.74 -8.26,-5.68 -12.16,-8.83 l -2.88,-2.32 c -2.71,-2.14 -5.38,-4.27 -7.99,-6.47 l -4.11,-3.66 c -2.48,-2.17 -4.5,-3.97 -6.47,-5.81 l -4.43,-4.27 c -1.93,-1.87 -3.87,-3.76 -5.78,-5.71 -1.21,-1.23 -2.37,-2.46 -3.52,-3.68 l -0.9,-0.96 c -1.83,-1.93 -3.65,-3.87 -5.43,-5.85 -1.46,-1.63 -2.91,-3.27 -4.33,-4.91 -1.76,-2.01 -3.51,-4.03 -5.22,-6.09 l -4.21,-5.12 c -1.69,-2.09 -3.36,-4.2 -5.02,-6.33 l -4.13,-5.37 c -1.58,-2.11 -3.2,-4.32 -4.81,-6.53 -1.33,-1.82 -2.64,-3.62 -3.93,-5.45 -1.56,-2.19 -3.06,-4.366 -4.55,-6.554 l -4.01,-5.914 c -1.4,-2.074 -2.77,-4.168 -4.12,-6.265 l -4.17,-6.481 c -1.36,-2.121 -2.66,-4.234 -3.96,-6.344 l -4.19,-6.812 c -2.05,-3.422 -4.11,-6.934 -6.18,-10.457 l -2.76,-4.781 c -2.21,-3.848 -4.44,-7.75 -6.63,-11.692 l -32.52,-61.992 c 3.62,-0.359 7.27,-0.66 10.92,-0.957 l 5.89,-0.5 c 4.55,-0.328 9.18,-0.543 13.81,-0.758 l 5.32,-0.269 c 6.35,-0.223 12.78,-0.352 19.25,-0.352 265.29,0 360.19,187.828 384.84,252.188"
         style="fill:#9c333f;fill-opacity:1;fill-rule:nonzero;stroke:none"
         id="path30" />
      <path
         d="m 1437.38,848.695 -1.14,0.211 c -3.94,0.731 -7.84,1.461 -11.72,2.262 l -6.39,1.371 c -3.97,0.859 -7.92,1.731 -11.85,2.66 l -5.99,1.489 c -4.02,0.988 -8.03,2 -12.03,3.07 l -5.6,1.562 c -4.08,1.133 -8.18,2.289 -12.26,3.508 l -5.16,1.598 c -4.15,1.273 -8.34,2.59 -12.49,3.961 l -4.67,1.582 c -4.26,1.437 -8.53,2.898 -12.78,4.426 l -4.23,1.55 c -4.35,1.59 -8.76,3.227 -13.14,4.926 l -3.42,1.359 c -4.61,1.805 -9.19,3.641 -13.74,5.536 l -2.77,1.168 c -4.77,2.007 -9.52,4.039 -14.26,6.132 l -1.26,0.567 c -5.69,2.535 -10.67,4.805 -15.65,7.125 l -1.02,0.48 C 1168.96,950.703 1080.41,1013 986.66,1078.95 829.949,1189.2 668.008,1303.1 463.926,1332.36 c -6.289,0.9 -12.5,-2.38 -15.391,-8.03 l -18.918,-37.06 c -2.566,-4.89 -5.113,-9.72 -7.691,-14.5 l -2.113,-3.86 c -1.891,-3.49 -3.817,-7.03 -5.762,-10.55 l -20.02,-34.34 c -1.59,-2.61 -3.191,-5.2 -4.812,-7.76 l -3.594,-5.61 c -1.887,-2.94 -3.496,-5.4 -5.109,-7.84 l -4.137,-6.12 c -1.645,-2.4 -3.285,-4.78 -4.934,-7.13 l -4.257,-5.95 c -1.739,-2.39 -3.458,-4.71 -5.184,-7.02 l -4.375,-5.75 c -1.809,-2.32 -3.625,-4.59 -5.441,-6.86 l -4.485,-5.5 c -1.902,-2.29 -3.824,-4.51 -5.75,-6.73 l -4.57,-5.22 c -1.985,-2.2 -3.957,-4.31 -5.938,-6.41 l -1.601,-1.71 c -1.086,-1.16 -2.176,-2.33 -3.313,-3.48 -1.988,-2.04 -4.07,-4.07 -6.148,-6.1 l -2.219,-2.15 c -0.93,-0.93 -1.894,-1.88 -2.883,-2.79 -2.851,-2.69 -5.828,-5.32 -8.808,-7.93 l -2.403,-2.14 c -4.433,-3.93 -9.039,-7.66 -13.808,-11.18 l -2.84,-2.09 c -2.949,-2.2 -5.899,-4.39 -8.926,-6.49 -1.172,-0.82 -2.383,-1.6 -3.586,-2.38 l -1.719,-1.13 c -3.086,-2.04 -5.586,-3.69 -8.14,-5.28 -1.41,-0.86 -2.824,-1.69 -4.25,-2.51 l -1.692,-0.98 c -2.664,-1.57 -5.379,-3.14 -8.14,-4.64 -1.731,-0.94 -3.461,-1.83 -5.199,-2.71 l -1.18,-0.61 c -2.735,-1.41 -5.508,-2.8 -8.332,-4.14 -1.992,-0.94 -3.985,-1.83 -5.977,-2.72 -3.679,-1.62 -6.523,-2.85 -9.422,-4.02 -2.351,-0.95 -4.738,-1.87 -7.109,-2.77 -2.969,-1.12 -5.957,-2.19 -8.965,-3.22 -2.461,-0.84 -4.933,-1.65 -7.422,-2.43 -3.086,-0.98 -6.261,-1.9 -9.453,-2.79 -2.512,-0.71 -5.039,-1.41 -7.617,-2.07 -3.273,-0.83 -6.602,-1.59 -9.949,-2.34 l -1.371,-0.3 c -2.157,-0.48 -4.305,-0.95 -6.485,-1.38 -3.457,-0.69 -7.027,-1.29 -10.593,-1.88 l -2.149,-0.37 c -1.894,-0.31 -3.801,-0.64 -5.742,-0.92 -3.535,-0.51 -7.141,-0.92 -10.742,-1.33 l -3.235,-0.38 c -1.738,-0.21 -3.504,-0.42 -5.308,-0.59 -4.258,-0.39 -8.633,-0.67 -13.02,-0.94 l -2.82,-0.19 c -1.379,-0.1 -2.777,-0.2 -4.211,-0.26 -6.6407,-0.31 -13.2032,-0.49 -20.4219,-0.48 -7.168,0.13 -14.1172,0.29 -21.8438,0.89 -7.2578,0.56 -14.7265,1.35 -22.1796,2.31 -6.875,0.89 -13.7383,1.93 -20.4571,3.02 l -3.0195,0.5 c -5.7695,0.97 -11.38672,1.98 -16.7461,3 15.6641,-17.66 32.3906,-35.82 49.8711,-54.122 l 10.0391,-10.449 c 3.4687,-3.586 7.0312,-7.246 10.6757,-10.972 19.6094,-19.981 39.8631,-39.872 60.1951,-59.122 18.516,-17.531 37.598,-34.98 56.719,-51.882 15.684,-13.856 31.512,-27.442 47.051,-40.387 10.871,-9.051 22,-18.141 33.387,-27.227 17.597,-14.054 35.382,-27.769 52.863,-40.765 6.054,-4.492 12.168,-8.985 18.332,-13.465 12.32,-8.922 24.879,-17.781 37.652,-26.547 14.766,-10.121 30.473,-20.492 46.66,-30.801 10.688,-6.812 21.457,-13.551 32.383,-20.133 27.891,-16.82 55.977,-32.5 83.477,-46.628 21.73,-11.149 43.633,-21.622 65.109,-31.098 29.961,-13.242 60.117,-25.012 89.629,-34.981 15.242,-5.16 30.676,-9.953 45.848,-14.25 39.375,-11.14 78.722,-19.371 116.925,-24.461 14.793,-1.968 30.098,-3.531 45.489,-4.621 25.664,-1.828 51.906,-2.25 78.015,-1.289 1.731,0.059 3.43,0.168 5.118,0.27 l 3.945,0.219 c 6.445,0.32 12.247,0.613 17.897,1.043 2.23,0.168 4.42,0.386 6.61,0.597 l 5.74,0.539 c 4.5,0.422 8.99,0.84 13.38,1.352 2.48,0.289 4.91,0.621 7.33,0.961 l 3.18,0.437 c 4.75,0.641 9.47,1.282 14.08,2.024 3.08,0.5 6.09,1.039 9.1,1.59 l 1.25,0.218 c 4.42,0.801 8.82,1.621 13.12,2.489 3.37,0.703 6.69,1.453 10.01,2.211 4.2,0.949 8.31,1.929 12.38,2.96 3.23,0.829 6.44,1.68 9.62,2.559 3.98,1.109 7.89,2.242 11.76,3.43 3.04,0.929 6.13,1.89 9.15,2.89 3.83,1.262 7.55,2.571 11.24,3.891 3.25,1.172 5.99,2.16 8.66,3.18 3.7,1.422 7.27,2.898 10.85,4.379 l 2.03,0.851 c 2.32,0.961 4.24,1.762 6.1,2.578 3.56,1.582 7.05,3.242 10.53,4.91 l 3.36,1.582 c 1.37,0.649 2.77,1.309 4.12,1.989 3.5,1.761 6.88,3.601 10.26,5.429 l 2.88,1.543 c 1.37,0.731 2.72,1.438 4.04,2.188 4.01,2.269 7.89,4.641 11.75,7.012 l 3.72,2.23 c 5.83,3.5 11.49,7.27 16.97,11.289 l 3.6,2.649 c 3.61,2.601 7.21,5.222 10.7,7.929 1.19,0.91 2.33,1.864 3.48,2.793 l 2.16,1.758 c 2.9,2.32 5.77,4.621 8.55,6.981 1.3,1.109 2.59,2.25 3.88,3.402 l 2.78,2.469 c 2.32,2.039 4.63,4.078 6.89,6.179 1.59,1.481 3.16,3 4.73,4.52 l 1.11,1.07 c 2.6,2.512 4.89,4.738 7.15,7 1.88,1.899 3.76,3.871 5.63,5.84 2.3,2.379 4.53,4.762 6.74,7.172 1.86,2.027 3.68,4.058 5.48,6.098 2.15,2.429 4.29,4.878 6.38,7.351 1.79,2.117 3.55,4.199 5.29,6.32 2.07,2.508 4.11,5.059 6.13,7.61 1.71,2.16 3.38,4.277 5.03,6.418 2.01,2.621 3.99,5.25 5.93,7.883 1.82,2.457 3.32,4.476 4.79,6.519 1.95,2.699 3.86,5.438 5.77,8.18 l 4.57,6.582 c 1.7,2.527 3.42,5.133 5.13,7.734 l 4.76,7.238 c 1.71,2.657 3.39,5.34 5.07,8.036 l 4.53,7.257 c 2.52,4.125 5.02,8.34 7.51,12.555 l 2.42,4.11 c 2.77,4.753 5.5,9.507 8.18,14.281 l 42.51,81.101"
         style="fill:#9c333f;fill-opacity:1;fill-rule:nonzero;stroke:none"
         id="path32" />
      <path
         d="M 2130.99,1470.52 V 719.422"
         style="fill:#9c333f;fill-opacity:1;fill-rule:nonzero;stroke:none"
         id="path34" />
      <path
         d="M 2130.99,1470.52 V 719.422"
         style="fill:none;stroke:#231f20;stroke-width:20;stroke-linecap:butt;stroke-linejoin:miter;stroke-miterlimit:10;stroke-dasharray:none;stroke-opacity:1"
         id="path36" />
    </g>
  </g>
</svg>
